<svg viewBox="0 0 13.7338 14.0859" xmlns="http://www.w3.org/2000/svg" xmlns:xlink="http://www.w3.org/1999/xlink" width="13.733765" height="14.085938" fill="none" customFrame="#000000">
	<g id="Group">
		<path id="Vector" d="M6.86907 0C4.00221 0 3.16376 0.00303453 3.00078 0.0169031C2.41245 0.0670747 2.04636 0.16211 1.64752 0.365826C1.34015 0.522415 1.09774 0.70392 0.8585 0.958355C0.422802 1.42236 0.15874 1.99321 0.0631476 2.67178C0.0166751 3.0012 0.00315317 3.06839 0.000407283 4.75104C-0.000646433 5.31192 0.000407283 6.05009 0.000407283 7.04019C0.000407283 9.97898 0.0035736 10.8383 0.0173082 11.0052C0.0648396 11.5925 0.154618 11.962 0.344744 12.3662C0.708094 13.1399 1.40204 13.7207 2.21958 13.9375C2.50266 14.0122 2.8153 14.0534 3.21667 14.0729C3.38673 14.0805 5.12003 14.0859 6.85438 14.0859C8.58874 14.0859 10.3231 14.0838 10.4889 14.0751C10.9537 14.0527 11.2235 14.0155 11.5219 13.9364C12.3447 13.7186 13.026 13.1464 13.3968 12.3619C13.5832 11.9674 13.6777 11.5838 13.7205 11.0272C13.7298 10.9058 13.7337 8.97078 13.7337 7.03836C13.7337 5.1056 13.7295 3.17415 13.7202 3.05278C13.6769 2.48713 13.5823 2.10678 13.3899 1.70475C13.232 1.37566 13.0567 1.12989 12.8021 0.878605C12.3478 0.433449 11.7922 0.162541 11.1302 0.0645832C10.8094 0.0170096 10.7455 0.00292277 9.10408 0L6.86907 0Z" fill="rgb(69,64,61)" fill-rule="nonzero" />
		<path id="Vector" d="M6.86962 1.80859C5.48283 1.80859 5.30879 1.81481 4.76412 1.84021C4.22051 1.86572 3.84945 1.95393 3.52477 2.08335C3.18892 2.21702 2.90403 2.39582 2.62021 2.68682C2.33617 2.97771 2.1617 3.26968 2.03085 3.61378C1.90426 3.94664 1.81809 4.32704 1.79362 4.88396C1.76926 5.44218 1.76288 5.62066 1.76288 7.04196C1.76288 8.46325 1.76905 8.64107 1.79373 9.1993C1.81873 9.75643 1.90479 10.1367 2.03096 10.4695C2.16149 10.8137 2.33595 11.1057 2.61989 11.3965C2.90361 11.6877 3.1885 11.8669 3.52413 12.0006C3.84902 12.13 4.22019 12.2182 4.76369 12.2437C5.30837 12.2691 5.4823 12.2753 6.86898 12.2753C8.25588 12.2753 8.42939 12.2691 8.97406 12.2437C9.51768 12.2182 9.88916 12.13 10.214 12.0006C10.5498 11.8669 10.8343 11.6877 11.118 11.3965C11.402 11.1057 11.5765 10.8137 11.7073 10.4696C11.8329 10.1367 11.919 9.75633 11.9446 9.19941C11.969 8.64119 11.9754 8.46325 11.9754 7.04196C11.9754 5.62066 11.969 5.44229 11.9446 4.88407C11.919 4.32693 11.8329 3.94664 11.7073 3.61389C11.5765 3.26968 11.402 2.9777 11.118 2.68682C10.8339 2.39571 10.5499 2.2169 10.2137 2.08335C9.8882 1.95393 9.51693 1.86572 8.97332 1.84021C8.42864 1.81481 8.25524 1.80859 6.86803 1.80859L6.86962 1.80859ZM6.41154 2.75169C6.5475 2.75147 6.6992 2.75169 6.86962 2.75169C8.23301 2.75169 8.3946 2.75671 8.933 2.78178C9.43087 2.80512 9.70107 2.89037 9.88107 2.962C10.1194 3.05686 10.2893 3.17025 10.4679 3.35342C10.6466 3.53659 10.7572 3.71103 10.85 3.95525C10.9199 4.13951 11.0032 4.41644 11.0258 4.9267C11.0503 5.47838 11.0556 5.6441 11.0556 7.04076C11.0556 8.43741 11.0503 8.60314 11.0258 9.15482C11.0031 9.66507 10.9199 9.942 10.85 10.1263C10.7574 10.3705 10.6466 10.5444 10.4679 10.7274C10.2892 10.9106 10.1195 11.024 9.88107 11.1189C9.70129 11.1908 9.43087 11.2759 8.933 11.2992C8.39471 11.3243 8.23301 11.3297 6.86962 11.3297C5.50613 11.3297 5.34454 11.3243 4.80624 11.2992C4.30838 11.2756 4.03817 11.1904 3.85806 11.1187C3.61977 11.0239 3.44956 10.9105 3.27084 10.7273C3.09212 10.5442 2.98148 10.3702 2.88871 10.1258C2.81882 9.94157 2.73553 9.66463 2.71287 9.15438C2.6884 8.6027 2.6835 8.43698 2.6835 7.03945C2.6835 5.64193 2.6884 5.47707 2.71287 4.92539C2.73563 4.41513 2.81882 4.1382 2.88871 3.95373C2.98126 3.7095 3.09212 3.53506 3.27084 3.35189C3.44956 3.16872 3.61977 3.05534 3.85806 2.96026C4.03806 2.8883 4.30838 2.80326 4.80624 2.77982C5.2773 2.75801 5.45985 2.75147 6.41154 2.75038L6.41154 2.75169ZM6.86962 4.3544C5.42145 4.3544 4.24732 5.55775 4.24732 7.04196C4.24732 8.52616 5.42145 9.72896 6.86962 9.72896C8.31779 9.72896 9.4915 8.52616 9.4915 7.04196C9.4915 5.55775 8.31779 4.3544 6.86962 4.3544ZM6.86962 5.2975C7.80961 5.2975 8.57173 6.07847 8.57173 7.04196C8.57173 8.00533 7.80961 8.78641 6.86962 8.78641C5.92953 8.78641 5.16752 8.00533 5.16752 7.04196C5.16752 6.07847 5.92953 5.2975 6.86962 5.2975Z" fill="rgb(255,255,255)" fill-rule="nonzero" />
		<path id="Vector" d="M8.98269 1.64043Q8.30048 1.60861 6.86962 1.60859L6.86803 1.60859Q5.43695 1.60861 4.7548 1.64043Q4.00785 1.67548 3.45071 1.89757Q3.17341 2.00793 2.93047 2.16985Q2.68642 2.3325 2.47703 2.54717Q2.3163 2.71179 2.1854 2.89744L2.18539 2.89745Q1.97676 3.19335 1.84391 3.54269Q1.62733 4.11216 1.59382 4.87518Q1.56288 5.58413 1.56288 7.04196Q1.56288 8.50588 1.59392 9.20813Q1.62817 9.97129 1.84395 10.5404Q1.97416 10.8838 2.17801 11.1757L2.17802 11.1757Q2.31158 11.367 2.47676 11.5362Q2.69142 11.7565 2.94223 11.9219Q3.17994 12.0788 3.45013 12.1864C3.82176 12.3344 4.25649 12.4201 4.75431 12.4435C5.20945 12.4647 5.91434 12.4753 6.86898 12.4753Q8.30086 12.4753 8.98338 12.4435C9.48156 12.4201 9.91645 12.3344 10.2881 12.1864C10.6578 12.0392 10.9822 11.8224 11.2612 11.5361C11.5391 11.2515 11.7501 10.9197 11.8943 10.5407C12.0377 10.1603 12.1211 9.71627 12.1443 9.20857C12.1651 8.73611 12.1754 8.0139 12.1754 7.04196Q12.1754 5.58361 12.1444 4.87531C12.1211 4.36723 12.0378 3.92322 11.8945 3.5433C11.7502 3.1639 11.5391 2.83183 11.2611 2.54709C10.9819 2.26093 10.6574 2.04439 10.2876 1.89748Q9.72912 1.67546 8.98269 1.64043ZM6.86803 1.80859L6.86962 1.80859C8.25537 1.8086 8.42885 1.81482 8.97332 1.84021C9.51693 1.86572 9.8882 1.95393 10.2137 2.08335C10.5499 2.2169 10.8339 2.39571 11.118 2.68682C11.402 2.9777 11.5765 3.26968 11.7073 3.61389C11.8329 3.94664 11.919 4.32693 11.9446 4.88407C11.969 5.44229 11.9754 5.62066 11.9754 7.04196C11.9754 8.46325 11.969 8.64119 11.9446 9.19941C11.919 9.75633 11.8329 10.1367 11.7073 10.4696C11.5765 10.8137 11.402 11.1057 11.118 11.3965C10.8343 11.6877 10.5498 11.8669 10.214 12.0006C9.88916 12.13 9.51768 12.2182 8.97406 12.2437C8.42939 12.2691 8.25588 12.2753 6.86898 12.2753C5.4823 12.2753 5.30837 12.2691 4.76369 12.2437C4.22019 12.2182 3.84902 12.13 3.52413 12.0006C3.1885 11.8669 2.90361 11.6877 2.61989 11.3965C2.33595 11.1057 2.16149 10.8137 2.03096 10.4695C1.90479 10.1367 1.81873 9.75643 1.79373 9.1993C1.76905 8.64107 1.76288 8.46325 1.76288 7.04196C1.76288 5.62066 1.76926 5.44218 1.79362 4.88396C1.81809 4.32704 1.90426 3.94664 2.03085 3.61378C2.1617 3.26968 2.33617 2.97771 2.62021 2.68682C2.90403 2.39582 3.18892 2.21702 3.52477 2.08335C3.84945 1.95393 4.22051 1.86572 4.76412 1.84021C5.30858 1.81482 5.4827 1.8086 6.86803 1.80859ZM6.69943 2.75164C6.59618 2.75159 6.50049 2.75155 6.41154 2.75169L6.41154 2.75038C5.45985 2.75147 5.2773 2.75801 4.80624 2.77982C4.30838 2.80326 4.03806 2.8883 3.85806 2.96026C3.61977 3.05534 3.44956 3.16872 3.27084 3.35189C3.09212 3.53506 2.98126 3.7095 2.88871 3.95373C2.81882 4.1382 2.73563 4.41513 2.71287 4.92539C2.6884 5.47707 2.6835 5.64193 2.6835 7.03945C2.6835 8.43698 2.6884 8.6027 2.71287 9.15438C2.73553 9.66463 2.81882 9.94157 2.88871 10.1258C2.98148 10.3702 3.09212 10.5442 3.27084 10.7273C3.44956 10.9105 3.61977 11.0239 3.85806 11.1187C4.03817 11.1904 4.30838 11.2756 4.80624 11.2992C5.34454 11.3243 5.50613 11.3297 6.86962 11.3297C8.23301 11.3297 8.39471 11.3243 8.933 11.2992C9.43087 11.2759 9.70129 11.1908 9.88107 11.1189C10.1195 11.024 10.2892 10.9106 10.4679 10.7274C10.6466 10.5444 10.7574 10.3705 10.85 10.1263C10.9199 9.942 11.0031 9.66507 11.0258 9.15482C11.0503 8.60314 11.0556 8.43741 11.0556 7.04076C11.0556 5.6441 11.0503 5.47838 11.0258 4.9267C11.0032 4.41644 10.9199 4.13951 10.85 3.95525C10.7572 3.71103 10.6466 3.53659 10.4679 3.35342C10.2893 3.17025 10.1194 3.05686 9.88107 2.962C9.70107 2.89037 9.43087 2.80512 8.933 2.78178C8.3946 2.75671 8.23301 2.75169 6.86962 2.75169C6.81069 2.75169 6.75401 2.75167 6.69943 2.75164ZM4.81565 2.9796C5.17813 2.96282 5.64318 2.95325 6.21082 2.9509L6.21081 2.95169L6.86962 2.95169Q8.28227 2.95169 8.92369 2.98156C9.27556 2.99806 9.57003 3.05348 9.80712 3.14783C10.0043 3.2263 10.1768 3.34137 10.3247 3.49305Q10.4019 3.57223 10.4664 3.66076Q10.5873 3.82704 10.663 4.02627C10.7556 4.27037 10.81 4.57347 10.826 4.93557C10.8458 5.38037 10.8556 6.0821 10.8556 7.04076Q10.8556 8.47875 10.826 9.14596Q10.8018 9.68943 10.663 10.0553C10.5862 10.258 10.4735 10.4354 10.3248 10.5877C10.1766 10.7396 10.0041 10.8547 9.80713 10.933C9.57137 11.0274 9.27687 11.0829 8.92364 11.0994Q8.27303 11.1297 6.86962 11.1297Q5.46622 11.1297 4.81555 11.0994C4.46376 11.0828 4.16923 11.0273 3.93198 10.9329C3.73454 10.8543 3.56188 10.7392 3.41399 10.5877C3.26557 10.4356 3.15281 10.2579 3.07569 10.0548C2.98309 9.81071 2.92875 9.5076 2.91267 9.14551C2.89323 8.7071 2.8835 8.00508 2.8835 7.03945Q2.8835 5.59186 2.91267 4.93425C2.92883 4.5721 2.98319 4.26888 3.07574 4.02459Q3.14819 3.83339 3.2629 3.67228Q3.331 3.57662 3.41399 3.49157Q3.51818 3.38478 3.63887 3.30205Q3.77503 3.20872 3.93218 3.14602Q4.28608 3.00453 4.81565 2.9796ZM6.86962 4.1544Q7.43236 4.1544 7.91567 4.35034Q8.43754 4.56192 8.86679 5.00195Q9.26262 5.40771 9.46846 5.89391Q9.6915 6.42072 9.6915 7.04195Q9.6915 7.66336 9.46833 8.19023Q9.26248 8.67619 8.86677 9.08171Q8.43787 9.52126 7.91647 9.73277Q7.43284 9.92896 6.86962 9.92896Q6.30653 9.92896 5.82294 9.73287Q5.30136 9.52136 4.87228 9.08173Q4.47619 8.6759 4.27027 8.18955Q4.04732 7.66295 4.04732 7.04196Q4.04732 6.42112 4.27014 5.89458Q4.47605 5.40799 4.87226 5.00193Q5.30168 4.56182 5.82374 4.35025Q6.307 4.1544 6.86962 4.1544ZM4.24732 7.04196C4.24732 5.55775 5.42145 4.3544 6.86962 4.3544C8.31779 4.3544 9.4915 5.55775 9.4915 7.04196C9.4915 8.52616 8.31779 9.72896 6.86962 9.72896C5.42145 9.72896 4.24732 8.52616 4.24732 7.04196ZM8.57173 7.04196C8.57173 6.07847 7.80961 5.2975 6.86962 5.2975C5.92953 5.2975 5.16752 6.07847 5.16752 7.04196C5.16752 8.00533 5.92953 8.78641 6.86962 8.78641C7.80961 8.78641 8.57173 8.00533 8.57173 7.04196ZM6.86962 5.4975Q6.57366 5.4975 6.31886 5.59992Q6.03923 5.71233 5.80918 5.9481Q5.59905 6.16345 5.4889 6.42149Q5.36752 6.70582 5.36752 7.04196Q5.36752 7.37793 5.4888 7.66215Q5.59896 7.92032 5.80919 8.13578Q6.03931 8.37164 6.31904 8.48405Q6.57376 8.58641 6.86962 8.58641Q7.16533 8.58641 7.41995 8.48413Q7.6998 8.37173 7.93002 8.13578Q8.14034 7.92023 8.25051 7.66196Q8.37173 7.37781 8.37173 7.04196Q8.37173 6.70594 8.25042 6.42169Q8.14025 6.16354 7.93003 5.9481Q7.69988 5.71224 7.42013 5.59984Q7.16544 5.4975 6.86962 5.4975Z" fill="rgb(255,255,255)" fill-rule="evenodd" />
	</g>
</svg>
