<svg viewBox="0 0 14 14" xmlns="http://www.w3.org/2000/svg" xmlns:xlink="http://www.w3.org/1999/xlink" width="14.000000" height="14.000000" fill="none">
	<defs>
		<filter id="pixso_custom_mask_type_outline">
			<feColorMatrix type="matrix" values="0 0 0 0 1 0 0 0 0 1 0 0 0 0 1 0 0 0 1 0 " />
		</filter>
	</defs>
	<mask id="mask_0" width="14.000000" height="14.000000" x="0.000000" y="0.000000" maskUnits="userSpaceOnUse">
		<g filter="url(#pixso_custom_mask_type_outline)">
			<g id="clip0_34_42">
				<path id="Vector" d="M14 0L0 0L0 14L14 14L14 0Z" fill="rgb(255,255,255)" fill-rule="evenodd" />
			</g>
		</g>
	</mask>
	<rect id="icon-vk-seeklogo 1" width="14.000000" height="14.000000" x="0.000000" y="0.000000" fill="rgb(255,255,255)" fill-opacity="0" />
	<g id="Clip path group" mask="url(#mask_0)">
		<g id="Group">
			<path id="Vector" d="M6.71273 14L7.29567 14C10.4602 14 12.0428 14 13.0256 13.0172C14.0084 12.0344 14 10.4524 14 7.2957L14 6.70433C14 3.54815 14 1.9656 13.0256 0.982803C12.0512 2.80142e-06 10.4602 0 7.29567 0L6.71273 0C3.54761 0 1.9656 2.80142e-06 0.9828 0.982803C-5.96046e-07 1.9656 1.01516e-18 3.54703 1.01516e-18 6.70433L1.01516e-18 7.2957C1.01516e-18 10.4524 -5.96046e-07 12.0344 0.9828 13.0172C1.9656 14 3.54761 14 6.71273 14Z" fill="rgb(69,64,61)" fill-rule="nonzero" />
			<path id="Vector" d="M7.51268 10.094C4.35595 10.094 2.4402 7.90386 2.36572 4.2644L3.96452 4.2644C4.01437 6.93786 5.23068 8.0724 6.1631 8.30368L6.1631 4.2644L7.6958 4.2644L7.6958 6.57104C8.59516 6.47137 9.53598 5.42192 9.85292 4.2644L11.3599 4.2644C11.1185 5.68849 10.0943 6.73792 9.36964 7.1708C10.0943 7.5208 11.2602 8.43695 11.7099 10.094L10.0529 10.094C9.70286 8.98631 8.84492 8.1284 7.6958 8.01192L7.6958 10.094L7.51268 10.094Z" fill="rgb(255,255,255)" fill-rule="nonzero" />
		</g>
	</g>
</svg>
