<svg viewBox="0 0 20 20" xmlns="http://www.w3.org/2000/svg" xmlns:xlink="http://www.w3.org/1999/xlink" width="20.000000" height="20.000000" fill="none" customFrame="#000000">
	<rect id="vuesax/bold/location" width="20.000000" height="20.000000" x="0.000000" y="0.000000" fill="rgb(255,255,255)" fill-opacity="0" />
	<g id="vuesax/bold/location">
		<path id="Vector" d="M17.1834 7.04158C16.3084 3.19159 12.95 1.45825 10 1.45825C10 1.45825 10 1.45825 9.99168 1.45825C7.05002 1.45825 3.68335 3.18325 2.80835 7.03325C1.83335 11.3333 4.46669 14.9749 6.85002 17.2666C7.73335 18.1166 8.86668 18.5416 10 18.5416C11.1334 18.5416 12.2667 18.1166 13.1417 17.2666C15.525 14.9749 18.1584 11.3416 17.1834 7.04158ZM10 11.2166C8.55002 11.2166 7.37502 10.0416 7.37502 8.59159C7.37502 7.14159 8.55002 5.96658 10 5.96658C11.45 5.96658 12.625 7.14159 12.625 8.59159C12.625 10.0416 11.45 11.2166 10 11.2166Z" fill="rgb(69,64,61)" fill-rule="nonzero" />
		<path id="Vector" d="M20 0L0 0L0 20L20 20L20 0Z" opacity="0" fill-rule="evenodd" />
		<path id="Vector" d="M20 0L0 0L0 20L20 20L20 0Z" opacity="0" fill-rule="evenodd" transform="matrix(-1,-1.22465e-16,1.22465e-16,-1,20,20)" />
	</g>
</svg>
