<svg viewBox="0 0 26.8906 26.8906" xmlns="http://www.w3.org/2000/svg" xmlns:xlink="http://www.w3.org/1999/xlink" width="26.890564" height="26.890625" fill="none" customFrame="#000000">
	<path id="Star 2" d="M16.378 8.43701C16.5153 8.83208 16.884 9.09995 17.3022 9.10847L23.3562 9.23185C24.3042 9.25117 24.6955 10.4557 23.94 11.0285L19.1147 14.6868C18.7814 14.9395 18.6406 15.3729 18.7617 15.7733L20.5151 21.5691C20.7897 22.4766 19.7651 23.2211 18.9868 22.6795L14.0165 19.2209C13.6731 18.982 13.2174 18.982 12.8741 19.2209L7.90375 22.6795C7.12551 23.2211 6.10086 22.4766 6.37541 21.5691L8.12889 15.7733C8.25001 15.3729 8.10918 14.9395 7.77588 14.6868L2.95056 11.0285C2.19503 10.4557 2.58641 9.25116 3.53433 9.23185L9.58839 9.10847C10.0066 9.09995 10.3753 8.83208 10.5126 8.43701L12.5007 2.71739C12.812 1.82183 14.0785 1.82183 14.3898 2.71739L16.378 8.43701Z" fill="rgb(255,204,0)" fill-rule="evenodd" />
</svg>
